<?xml version="1.0" standalone="no"?>
<!DOCTYPE svg PUBLIC "-//W3C//DTD SVG 20010904//EN"
 "http://www.w3.org/TR/2001/REC-SVG-20010904/DTD/svg10.dtd">
<svg version="1.0" xmlns="http://www.w3.org/2000/svg"
 width="233.000000pt" height="233.000000pt" viewBox="0 0 233.000000 233.000000"
 preserveAspectRatio="xMidYMid meet">
<metadata>
Created by potrace 1.11, written by Peter Selinger 2001-2013
</metadata>
<g transform="translate(0.000000,233.000000) scale(0.100000,-0.100000)"
fill="#000000" stroke="none">
<path d="M1040 2100 l-565 -5 -52 -27 c-76 -40 -115 -79 -154 -150 l-34 -63
-5 -570 c-3 -314 -2 -593 2 -622 16 -130 119 -246 251 -284 48 -14 1174 -13
1228 1 103 26 213 136 239 239 13 53 15 1180 1 1227 -41 142 -162 243 -306
256 -22 1 -294 1 -605 -2z m20 -120 c11 -6 24 -19 30 -30 10 -19 35 -176 65
-415 23 -179 19 -171 83 -139 29 14 77 48 106 75 30 27 57 49 60 49 19 0 1
-45 -31 -81 -43 -48 -92 -81 -145 -98 -45 -15 -45 -15 -18 -165 25 -139 54
-260 78 -328 20 -57 78 -152 108 -180 30 -27 112 -33 153 -11 56 29 73 62 79
145 5 89 -17 143 -75 183 -49 33 -78 32 -115 -5 -28 -29 -29 -32 -14 -49 21
-23 21 -55 0 -72 -14 -11 -19 -10 -34 9 -15 18 -16 29 -9 62 11 48 34 87 60
100 10 6 40 10 68 10 44 0 56 -5 91 -36 77 -70 100 -200 55 -324 -15 -44 -15
-46 6 -62 52 -43 107 -6 168 111 34 65 40 72 49 55 8 -16 1 -35 -36 -102 -68
-120 -113 -143 -198 -101 -39 19 -45 19 -67 5 -36 -24 -109 -30 -179 -16 -109
24 -169 98 -236 295 -29 84 -82 337 -82 390 0 50 -7 55 -86 55 -68 0 -74 -2
-79 -22 -3 -13 -19 -86 -36 -163 -50 -233 -108 -425 -141 -473 -44 -64 -81
-84 -150 -79 -111 7 -168 75 -152 183 12 83 49 67 45 -21 -2 -50 1 -59 28 -85
58 -58 169 -33 210 47 10 21 44 139 74 263 66 269 81 339 72 348 -11 12 -179
14 -207 3 -15 -6 -41 -29 -57 -52 -38 -51 -53 -32 -22 29 31 61 74 77 198 74
89 -2 102 0 107 15 6 18 96 559 96 574 0 13 31 39 46 39 9 0 24 -5 34 -10z"/>
<path d="M1006 1830 c-4 -36 -23 -157 -42 -269 -19 -112 -34 -206 -34 -209 0
-5 129 4 134 9 4 5 -33 422 -42 484 l-8 50 -8 -65z"/>
<path d="M2022 1195 c-2 -556 -5 -592 -54 -674 -29 -49 -95 -118 -142 -148
-91 -59 -75 -57 -666 -63 l-545 -6 521 -2 c342 -1 541 2 580 9 67 12 154 47
154 61 0 5 3 7 8 5 10 -7 83 69 75 77 -3 3 -2 6 4 6 16 0 50 88 63 160 7 43
10 237 8 580 l-3 515 -3 -520z"/>
</g>
</svg>
